<svg width="24" height="24" viewBox="0 0 24 24" fill="none" xmlns="http://www.w3.org/2000/svg">
<path d="M11.5312 7.52344C12.049 7.52344 12.4688 7.1037 12.4688 6.58594C12.4688 6.06817 12.049 5.64844 11.5312 5.64844C11.0135 5.64844 10.5938 6.06817 10.5938 6.58594C10.5938 7.1037 11.0135 7.52344 11.5312 7.52344Z" fill="#00694C"/>
<path d="M20.7188 8.40408V1.42969H12.332C10.9918 1.42969 9.78689 2.17434 9.1875 3.37308L7.81542 6.11719H0V8.41331L3.03286 13.7208C3.65719 14.8134 4.82681 15.4922 6.08527 15.4922H10.8281V22.5703H24V11.6853L20.7188 8.40408ZM15.0938 2.83594H19.3125V6.35156C19.3125 7.51467 18.3662 8.46094 17.2031 8.46094C16.04 8.46094 15.0938 7.51467 15.0938 6.35156V2.83594ZM22.5938 21.1641H12.2344V19.7578H22.5938V21.1641ZM22.5938 18.3516H12.2344V14.0859H6.08527C5.3302 14.0859 4.62844 13.6787 4.25381 13.0231L1.58002 8.34398L2.40061 7.52344H8.68453L10.4453 4.00195C10.8049 3.2827 11.5278 2.83594 12.332 2.83594H13.6875V6.35156C13.6875 8.29008 15.2646 9.86719 17.2031 9.86719C18.0388 9.86719 18.8069 9.57361 19.4108 9.08484L22.5938 12.2678V18.3516Z" fill="#00694C"/>
</svg>
