<svg width="24" height="24" viewBox="0 0 24 24" fill="none" xmlns="http://www.w3.org/2000/svg">
<path fill-rule="evenodd" clip-rule="evenodd" d="M17.2927 10.5387L12.9998 14.8316V1.99579H10.9998V14.8316L6.70694 10.5387L5.29272 11.9529L11.9998 18.66L18.7069 11.9529L17.2927 10.5387ZM3 17V14.5H1V17V21V22H2H22H23V21V21V21V20.9999V20.9999V20.9999V20.9999V20.9998V20.9998V20.9998V20.9997V20.9997V20.9996V20.9996V20.9995V20.9995V20.9994V20.9993V20.9993V20.9992V20.9991V20.999V20.9989V20.9988V20.9987V20.9986V20.9985V20.9984V20.9982V20.9981V20.9979V20.9978V20.9976V20.9975V20.9973V20.9971V20.9969V20.9967V20.9965V20.9963V20.996V20.9958V20.9956V20.9953V20.995V20.9948V20.9945V20.9942V20.9939V20.9936V20.9932V20.9929V20.9925V20.9922V20.9918V20.9914V20.991V20.9906V20.9902V20.9898V20.9893V20.9889V20.9884V20.9879V20.9874V20.9869V20.9864V20.9859V20.9853V20.9847V20.9842V20.9836V20.983V20.9823V20.9817V20.981V20.9804V20.9797V20.979V20.9783V20.9775V20.9768V20.976V20.9752V20.9744V20.9736V20.9728V20.972V20.9711V20.9702V20.9693V20.9684V20.9674V20.9665V20.9655V20.9645V20.9635V20.9625V20.9614V20.9603V20.9592V20.9581V20.957V20.9558V20.9547V20.9535V20.9523V20.951V20.9498V20.9485V20.9472V20.9459V20.9445V20.9432V20.9418V20.9404V20.939V20.9375V20.936V20.9345V20.933V20.9315V20.9299V20.9283V20.9267V20.925V20.9234V20.9217V20.92V20.9182V20.9165V20.9147V20.9129V20.911V20.9091V20.9073V20.9053V20.9034V20.9014V20.8994V20.8974V20.8953V20.8933V20.8912V20.889V20.8869V20.8847V20.8825V20.8802V20.8779V20.8756V20.8733V20.8709V20.8685V20.8661V20.8637V20.8612V20.8587V20.8562V20.8536V20.851V20.8484V20.8457V20.843V20.8403V20.8375V20.8347V20.8319V20.8291V20.8262V20.8233V20.8203V20.8174V20.8143V20.8113V20.8082V20.8051V20.802V20.7988V20.7956V20.7923V20.7891V20.7858V20.7824V20.779V20.7756V20.7722V20.7687V20.7651V20.7616V20.758V20.7544V20.7507V20.747V20.7433V20.7395V20.7357V20.7318V20.7279V20.724V20.72V20.716V20.712V20.7079V20.7038V20.6997V20.6955V20.6912V20.687V20.6827V20.6783V20.6739V20.6695V20.665V20.6605V20.656V20.6514V20.6468V20.6421V20.6374V20.6326V20.6279V20.623V20.6181V20.6132V20.6083V20.6033V20.5982V20.5931V20.588V20.5828V20.5776V20.5724V20.5671V20.5617V20.5563V20.5509V20.5454V20.5399V20.5343V20.5287V20.5231V20.5174V20.5116V20.5058V20.5V20.4941V20.4882V20.4822V20.4762V20.4701V20.464V20.4579V20.4516V20.4454V20.4391V20.4327V20.4263V20.4199V20.4134V20.4069V20.4003V20.3936V20.3869V20.3802V20.3734V20.3666V20.3597V20.3528V20.3458V20.3387V20.3317V20.3245V20.3173V20.3101V20.3028V20.2955V20.2881V20.2806V20.2732V20.2656V20.258V20.2504V20.2427V20.2349V20.2271V20.2192V20.2113V20.2034V20.1953V20.1873V20.1791V20.171V20.1627V20.1544V20.1461V20.1377V20.1292V20.1207V20.1122V20.1035V20.0949V20.0861V20.0773V20.0685V20.0596V20.0506V20.0416V20.0326V20.0234V20.0143V20.005V19.9957V19.9864V19.9769V19.9675V19.9579V19.9484V19.9387V19.929V19.9192V19.9094V19.8995V19.8896V19.8796V19.8695V19.8594V19.8492V19.839V19.8287V19.8183V19.8079V19.7974V19.7868V19.7762V19.7655V19.7548V19.744V19.7331V19.7222V19.7112V19.7002V19.6891V19.6779V19.6667V19.6554V19.644V19.6326V19.6211V19.6095V19.5979V19.5862V19.5745V19.5627V19.5508V19.5389V19.5268V19.5148V19.5026V19.4904V19.4782V19.4658V19.4534V19.4409V19.4284V19.4158V19.4031V19.3904V19.3776V19.3647V19.3517V19.3387V19.3257V19.3125V19.2993V19.286V19.2726V19.2592V19.2457V19.2322V19.2185V19.2048V19.191V19.1772V19.1633V19.1493V19.1352V19.1211V19.1069V19.0927V19.0783V19.0639V19.0494V19.0349V19.0202V19.0055V18.9908V18.9759V18.961V18.946V18.9309V18.9158V18.9006V18.8853V18.8699V18.8545V18.839V18.8234V18.8077V18.792V18.7762V18.7603V18.7444V18.7283V18.7122V18.696V18.6798V18.6634V18.647V18.6305V18.6139V18.5973V18.5806V18.5638V18.5469V18.5299V18.5129V18.4958V18.4786V18.4613V18.444V18.4265V18.409V18.3915V18.3738V18.356V18.3382V18.3203V18.3023V18.2843V18.2661V18.2479V18.2296V18.2112V18.1927V18.1742V18.1556V18.1368V18.118V18.0992V18.0802V18.0612V18.042V18.0228V18.0035V17.9842V17.9647V17.9452V17.9255V17.9058V17.886V17.8662V17.8462V17.8262V17.806V17.7858V17.7655V17.7451V17.7247V17.7041V17.6835V17.6627V17.6419V17.621V17.6V17.579V17.5578V17.5365V17.5152V17.4938V17.4723V17.4507V17.429V17.4072V17.3854V17.3634V17.3414V17.3192V17.297V17.2747V17.2523V17.2298V17.2073V17.1846V17.1618V17.139V17.116V17.093V17.0699V17.0467V17.0234V17V14.5H21V17V17.0234V17.0467V17.0699V17.093V17.116V17.139V17.1618V17.1846V17.2073V17.2298V17.2523V17.2747V17.297V17.3192V17.3414V17.3634V17.3854V17.4072V17.429V17.4507V17.4723V17.4938V17.5152V17.5365V17.5578V17.579V17.6V17.621V17.6419V17.6627V17.6835V17.7041V17.7247V17.7451V17.7655V17.7858V17.806V17.8262V17.8462V17.8662V17.886V17.9058V17.9255V17.9452V17.9647V17.9842V18.0035V18.0228V18.042V18.0612V18.0802V18.0992V18.118V18.1368V18.1556V18.1742V18.1927V18.2112V18.2296V18.2479V18.2661V18.2843V18.3023V18.3203V18.3382V18.356V18.3738V18.3915V18.409V18.4265V18.444V18.4613V18.4786V18.4958V18.5129V18.5299V18.5469V18.5638V18.5806V18.5973V18.6139V18.6305V18.647V18.6634V18.6798V18.696V18.7122V18.7283V18.7444V18.7603V18.7762V18.792V18.8077V18.8234V18.839V18.8545V18.8699V18.8853V18.9006V18.9158V18.9309V18.946V18.961V18.9759V18.9908V19.0055V19.0202V19.0349V19.0494V19.0639V19.0783V19.0927V19.1069V19.1211V19.1352V19.1493V19.1633V19.1772V19.191V19.2048V19.2185V19.2322V19.2457V19.2592V19.2726V19.286V19.2993V19.3125V19.3257V19.3387V19.3517V19.3647V19.3776V19.3904V19.4031V19.4158V19.4284V19.4409V19.4534V19.4658V19.4782V19.4904V19.5026V19.5148V19.5268V19.5389V19.5508V19.5627V19.5745V19.5862V19.5979V19.6095V19.6211V19.6326V19.644V19.6554V19.6667V19.6779V19.6891V19.7002V19.7112V19.7222V19.7331V19.744V19.7548V19.7655V19.7762V19.7868V19.7974V19.8079V19.8183V19.8287V19.839V19.8492V19.8594V19.8695V19.8796V19.8896V19.8995V19.9094V19.9192V19.929V19.9387V19.9484V19.9579V19.9675V19.9769V19.9864V19.9957V20H3V17Z" fill="#1F2325"/>
</svg>
