<svg width="24" height="24" viewBox="0 0 24 24" fill="none" xmlns="http://www.w3.org/2000/svg">
<path d="M19.103 9.68095C18.4837 9.68095 17.8911 9.79677 17.3452 10.0075C16.9175 9.05704 16.548 8.0519 16.3634 7.11679C16.067 5.61501 14.7399 4.52502 13.2079 4.52502C12.8196 4.52502 12.5048 4.83984 12.5048 5.22815C12.5048 5.61646 12.8196 5.93127 13.2079 5.93127C13.3752 5.93127 13.5381 5.95462 13.6933 5.99798C14.165 6.12979 14.5652 6.44882 14.7987 6.87726C14.7798 6.90126 14.7618 6.92615 14.7458 6.9531L14.5274 7.32084L13.4222 9.18131H7.51767L7.18205 8.33657H7.32136C7.70967 8.33657 8.02448 8.02176 8.02448 7.63345C8.02448 7.24513 7.70967 6.93032 7.32136 6.93032H4.89703C4.50872 6.93032 4.19391 7.24513 4.19391 7.63345C4.19391 8.02176 4.50872 8.33657 4.89703 8.33657H5.66887L6.28247 9.88082C5.84297 9.75098 5.37806 9.6809 4.89703 9.6809C2.1968 9.68095 0 11.8777 0 14.5779C0 17.2781 2.1968 19.4749 4.89698 19.4749C7.35844 19.4749 9.40125 17.6493 9.7433 15.2811H11.0346C11.2826 15.2811 11.5124 15.1503 11.6391 14.937L15.3341 8.71645C15.5508 9.38723 15.8221 10.0593 16.1146 10.7014C14.9546 11.5978 14.206 13.002 14.206 14.578C14.206 17.2782 16.4028 19.475 19.103 19.475C21.8032 19.475 24 17.2782 24 14.578C24 11.8778 21.8032 9.68095 19.103 9.68095ZM4.89698 15.2811H8.31656C7.99031 16.87 6.58102 18.0687 4.89698 18.0687C2.9722 18.0686 1.40625 16.5027 1.40625 14.5779C1.40625 12.6531 2.9722 11.0872 4.89698 11.0872C6.58102 11.0872 7.99031 12.2859 8.31656 13.8748H4.89698C4.50867 13.8748 4.19386 14.1896 4.19386 14.5779C4.19386 14.9662 4.50867 15.2811 4.89698 15.2811ZM10.6344 13.8748H9.7433C9.58012 12.7452 9.03005 11.7391 8.232 10.9957C8.22469 10.9675 8.2162 10.9394 8.20514 10.9116L8.07642 10.5876H12.587L10.6344 13.8748ZM19.103 18.0686C17.1782 18.0686 15.6123 16.5027 15.6123 14.5779C15.6123 13.5582 16.0519 12.6394 16.7514 12.0006C17.6161 13.6532 18.4608 14.8851 18.5243 14.9773C18.6608 15.175 18.8803 15.2811 19.1036 15.2811C19.2413 15.2811 19.3805 15.2406 19.5024 15.1565C19.822 14.9359 19.9023 14.498 19.6817 14.1784C19.6665 14.1565 18.8157 12.9156 17.9636 11.2791C18.321 11.1553 18.7041 11.0871 19.103 11.0871C21.0278 11.0871 22.5938 12.6531 22.5938 14.5778C22.5938 16.5026 21.0278 18.0686 19.103 18.0686Z" fill="#00694C"/>
</svg>
