<?xml version="1.0" encoding="utf-8"?>
<!-- Generator: Adobe Illustrator 24.0.0, SVG Export Plug-In . SVG Version: 6.00 Build 0)  -->
<svg version="1.1" xmlns="http://www.w3.org/2000/svg" xmlns:xlink="http://www.w3.org/1999/xlink" x="0px" y="0px"
	 viewBox="0 0 595.28 841.89" style="enable-background:new 0 0 595.28 841.89;" xml:space="preserve">
<style type="text/css">
	.st0{fill:none;}
	.st1{fill:#DC2F34;}
	.st2{fill:#00684E;}
</style>
<g id="CENTREREN_MASKER">
	<rect x="159.75" y="368.72" class="st0" width="279.23" height="92.11"/>
</g>
<g id="HOLLAND">
	<g>
		<path class="st1" d="M220,451.93v-5.53h3.02v14.15H220v-6.22h-4.98v6.22h-3.02V446.4h3.02v5.53H220z"/>
		<path class="st1" d="M242.3,453.48c0,3.57-1.92,7.29-6.22,7.29c-4.3,0-6.22-3.73-6.22-7.29c0-3.57,1.92-7.29,6.22-7.29
			C240.38,446.19,242.3,449.91,242.3,453.48z M232.96,453.48c0,1.82,0.52,5.06,3.12,5.06c2.6,0,3.12-3.24,3.12-5.06
			s-0.52-5.06-3.12-5.06C233.48,448.42,232.96,451.66,232.96,453.48z"/>
		<path class="st1" d="M252.14,458.16h6.28v2.4h-9.3V446.4h3.02V458.16z"/>
		<path class="st1" d="M267.97,458.16h6.28v2.4h-9.3V446.4h3.02V458.16z"/>
		<path class="st1" d="M292.18,460.56h-3.08l-0.99-3.55h-4.46l-0.99,3.55h-3.08l4.22-14.15h4.07L292.18,460.56z M285.92,448.84
			h-0.08l-1.59,5.93h3.26L285.92,448.84z"/>
		<path class="st1" d="M302.52,446.4l4.52,9.33h0.04v-9.33h3.02v14.15h-3.24l-5.7-11.37h-0.04v11.37h-3.02V446.4H302.52z"/>
		<path class="st1" d="M320.91,446.4c5.74,0,7.77,3.06,7.77,7.08c0,3.98-2.23,7.08-6.73,7.08h-4.73V446.4H320.91z M321.72,458.16
			c2.4,0,3.86-1.42,3.86-5c0-2.97-1.36-4.35-4.19-4.35h-1.14v9.35H321.72z"/>
	</g>
</g>
<g id="Keukenhof_LOGO">
	<g>
		<path class="st2" d="M174.44,406.22c0-5.46-0.58-6.42-2.45-6.72v-0.96c2.21,0,4.51,0.24,6.67,0.24c2.16,0,4.46-0.24,6.81-0.24
			v0.96c-2.02,0.6-2.59,1.56-2.59,6.72v9.72l7.68-8.76c0.96-1.08,2.26-3.66,2.26-4.74c0-1.8-0.82-2.4-2.3-2.82v-1.08
			c2.21,0,4.51,0.24,6.67,0.24c2.16,0,4.46-0.24,6.67-0.24v1.2c-3.5,1.68-6.62,4.2-9.6,7.02l-8.59,8.82v0.12
			c5.71,0,9.41,1.44,12.86,9.36c2.3,5.28,4.13,9.72,7.01,11.58v0.54h-11.37c-0.24,0-0.48-0.18-0.58-0.48l-4.37-12.54
			c-0.82-2.28-1.97-6.3-4.42-6.3c-1.34,0-1.92,1.14-1.92,3.3v4.38c0,7.08,0.19,10.2,3.26,10.44v1.2h-15.07v-1.2
			c3.17-0.24,3.36-5.04,3.36-10.44V406.22z"/>
		<path class="st2" d="M212.88,418.16v3.42c0,6.54,1.54,13.98,8.25,13.98c5.09,0,8.21-5.94,9.26-11.52l1.25,1.14
			c-1.68,8.52-6.29,12.9-13.53,12.9c-8.11,0-13.1-7.74-13.1-16.5c0-9.12,4.99-16.5,13.1-16.5c6.57,0,12.29,4.68,12.62,13.08H212.88z
			 M222.87,416.24c-0.14-3.84-0.58-9.24-4.99-9.24c-4.41,0-4.85,5.4-4.99,9.24H222.87z"/>
		<path class="st2" d="M252.67,431.3c-1.87,4.56-4.37,6.78-8.45,6.78c-6,0-8.97-5.16-8.97-12.3c0-4.68-0.05-9.36-0.1-14.1
			c0-2.1-0.96-2.58-2.45-3v-0.96c3.26-0.36,6.57-0.84,9.93-1.74c-0.14,2.76-0.38,7.68-0.38,13.44v5.94c0,3.9,0.82,9,4.65,9
			c4.18,0,5.61-6.18,5.61-12.18v-9.78c0-2.34-0.91-3.48-2.69-3.84v-0.9c3.26-0.36,6.57-0.84,9.84-1.68
			c-0.1,7.32-0.14,14.76-0.14,22.14c0,5.46,0.67,7.26,2.83,8.16v0.9h-8.49L252.67,431.3z"/>
		<path class="st2" d="M300.57,418.16v3.42c0,6.54,1.54,13.98,8.25,13.98c5.09,0,8.21-5.94,9.26-11.52l1.25,1.14
			c-1.68,8.52-6.29,12.9-13.53,12.9c-8.11,0-13.1-7.74-13.1-16.5c0-9.12,4.99-16.5,13.1-16.5c6.57,0,12.29,4.68,12.62,13.08H300.57z
			 M310.55,416.24c-0.14-3.84-0.58-9.24-4.99-9.24c-4.42,0-4.85,5.4-4.99,9.24H310.55z"/>
		<path class="st2" d="M329.99,411.8v0.12h0.1c1.73-4.56,4.37-6.84,8.49-6.84c5.09,0,8.69,4.26,8.69,10.62v15.9
			c0,2.82,0.96,4.38,3.17,4.92v0.9c-2.21,0-4.66-0.24-6.67-0.24c-1.97,0-4.22,0.24-6.43,0.24v-0.9c1.68-0.24,2.93-1.92,2.93-4.92
			v-14.16c0-3.9-0.82-9-4.65-9c-4.13,0-5.23,7.74-5.23,11.58v7.14c0,4.98,0.67,8.46,3.26,9.36v0.9c-2.26,0-4.56-0.24-6.77-0.24
			c-2.21,0-4.51,0.24-6.77,0.24v-0.9c2.59-0.9,3.26-4.38,3.26-9.36v-12.78c0-4.2-1.54-5.46-2.98-5.82v-0.9
			c3.17-0.3,6.29-0.84,9.6-1.68V411.8z"/>
		<path class="st2" d="M361.04,411.8v0.12h0.1c1.73-4.56,4.37-6.84,8.49-6.84c5.09,0,8.69,4.26,8.69,10.62v15.9
			c0,2.82,0.96,4.38,3.17,4.92v0.9c-2.21,0-4.65-0.24-6.67-0.24c-1.97,0-4.22,0.24-6.43,0.24v-0.9c1.68-0.24,2.93-1.92,2.93-4.92
			v-14.16c0-3.9-0.82-9-4.65-9c-4.42,0-5.61,5.46-5.61,13.44v5.28c0,4.98,0.67,8.46,3.26,9.36v0.9c-2.26,0-4.56-0.24-6.77-0.24
			c-2.21,0-4.51,0.24-6.77,0.24v-0.9c2.59-0.9,3.26-4.38,3.26-9.36v-26.04c0-2.7-0.72-3.9-2.78-4.44v-0.9
			c3.26-0.42,6.53-1.14,9.79-2.1V411.8z"/>
		<path class="st2" d="M411.34,421.58c0,10.14-6.81,16.5-14.49,16.5s-14.49-6.36-14.49-16.5c0-10.14,6.81-16.5,14.49-16.5
			S411.34,411.44,411.34,421.58z M390.23,421.58c0,5.16,1.1,14.58,6.62,14.58c5.52,0,6.62-9.42,6.62-14.58
			c0-5.16-1.1-14.58-6.62-14.58C391.33,407,390.23,416.42,390.23,421.58z"/>
		<path class="st2" d="M422.63,410.06v19.8c0,3.66,0.67,6.18,3.26,6.66v0.9c-2.26,0-4.56-0.24-6.77-0.24
			c-2.21,0-4.51,0.24-6.77,0.24v-0.9c2.59-0.48,3.26-3,3.26-6.66v-19.8h-4.13l0.91-3.12h3.31c0-12.72,6.14-13.26,14.59-13.26
			l-2.64,9.18l-0.62-0.3c-0.29-1.68-0.72-6.18-2.4-6.18c-1.25,0-2.02,1.08-2.02,3.84v6.72h4.75l-0.82,3.12H422.63z"/>
		<path class="st2" d="M270.19,401.44c-2.23,0-3.36-0.31-3.36-0.31v26.04c0,4.98-0.67,8.46-3.26,9.36v0.9
			c2.26,0,4.56-0.24,6.77-0.24c2.21,0,4.51,0.24,6.77,0.24v-0.9c-2.59-0.9-3.26-4.38-3.26-9.36v-2.58c0-3,0.53-4.08,1.68-4.08
			c0.77,0,1.15,0.42,1.44,1.14l6.67,15.78c1.63,0,3.26-0.24,4.75-0.24c1.44,0,3.31,0.24,4.89,0.24v-0.9
			c-1.63-1.2-2.4-2.46-3.41-4.56l-4.75-9.42c-1.4-2.74-2.57-3.67-6.84-4.04c1.1-0.29,6.66-1.98,10.81-7.2
			c1.54-1.94,3.59-9.12,5.21-15.2c0.16-0.44,0.28-0.84,0.34-1.15c0.04-0.18,0.05-0.33,0.05-0.47c0-0.67-0.39-0.92-0.75-1.01
			c-0.68-0.16-0.95,0.13-1.21,0.86l-0.01,0c0,0-0.01,0.03-0.01,0.05c-0.1,0.3-0.2,0.64-0.32,1.08c-0.01,0.03-0.01,0.05-0.02,0.08
			c-0.74,1.98-2.91,5.41-9.44,8.74c-4.41,2.25-7.38,7.57-9.1,11.67v-15.02C273.84,400.93,272.42,401.44,270.19,401.44z
			 M287.52,410.05c-4.01,5.04-9.61,6.48-9.77,6.52c-0.24,0.03-1.18,0.21-2.28,0.71c1.57-3.88,4.33-9.16,8.37-11.22
			c3.14-1.6,5.35-3.26,6.94-4.82C289.35,406.17,288.25,409.12,287.52,410.05z"/>
	</g>
	<path class="st1" d="M283.73,383.92c-1.58-7.33-4.7-10.87-6.03-12.38l-0.3-0.35c-0.97-1.14-2.3-1.09-3.27-0.78
		c-1.03-1.06-2.17-1.61-3.41-1.64c-1.66-0.04-2.98,0.9-3.61,1.45c-1.02-0.28-2.94-0.52-4.2,1.07c-0.23,0.26-6.53,7.39-6.44,15.89
		c0.07,6.44,1.99,10.69,5.85,12.96c0.23,0.23,0.39,0.37,0.42,0.4l0.05,0.04l0.06,0.03c5.55,3.45,13.28,0.84,13.6,0.73
		c3.42-1.63,4.73-3.41,4.94-3.71c1.01-0.99,2.88-4.01,2.88-8.97C284.26,387.25,284.11,385.67,283.73,383.92z M270.68,370.78
		c0.6,0.02,1.18,0.28,1.75,0.79l-1.61,1.5c-0.47-0.6-1.08-1.28-1.69-1.82C269.56,371,270.09,370.77,270.68,370.78z M264.28,372.46
		c0.91-1.15,2.78-0.35,2.79-0.34c0,0,0.17,0.07,0.28,0.12c0.52,0.33,1.69,1.5,2.09,2.13c-1.88,1.88-4.06,4.56-6.5,8
		c-2.16,3.05-3.36,7.72-3.41,7.92c-0.28,1.33-0.3,2.53-0.18,3.62c-0.64-1.66-1.06-3.83-1.09-6.74
		C258.18,379.38,264.22,372.53,264.28,372.46z M279.95,396.26l-0.09,0.08l-0.07,0.11c-0.01,0.02-1.09,1.61-4.05,3.03
		c-0.57,0.18-7.22,2.25-11.78-0.54c-0.34-0.3-2.68-2.48-2.68-6.24c0-0.62,0.06-1.28,0.21-1.97c0,0,1.16-4.47,3.1-7.21
		c2.54-3.58,4.86-6.41,6.72-8.18c0,0,2.95-2.74,3.1-2.88c0.15-0.08,0.99-0.53,1.46,0.02l0.33,0.38c1.23,1.39,4.11,4.66,5.58,11.48
		c0.35,1.64,0.49,3.09,0.49,4.37C282.27,393.88,279.98,396.23,279.95,396.26z"/>
</g>
<g id="_xAE_">
	<g>
		<g>
			<g>
				<path class="st2" d="M436.14,393.68c0.48,0,0.94,0.12,1.39,0.37c0.45,0.24,0.81,0.59,1.06,1.05c0.25,0.45,0.38,0.93,0.38,1.42
					c0,0.49-0.12,0.96-0.37,1.41c-0.25,0.45-0.6,0.8-1.05,1.05c-0.45,0.25-0.92,0.37-1.41,0.37c-0.49,0-0.96-0.12-1.41-0.37
					c-0.45-0.25-0.8-0.6-1.05-1.05c-0.25-0.45-0.38-0.92-0.38-1.41c0-0.49,0.13-0.97,0.38-1.42c0.25-0.45,0.61-0.8,1.06-1.05
					C435.2,393.81,435.67,393.68,436.14,393.68z M436.14,394.15c-0.4,0-0.79,0.1-1.16,0.31c-0.38,0.2-0.67,0.5-0.88,0.88
					c-0.21,0.38-0.32,0.77-0.32,1.19c0,0.41,0.11,0.8,0.31,1.17c0.21,0.38,0.5,0.67,0.88,0.88c0.38,0.21,0.77,0.31,1.18,0.31
					s0.8-0.11,1.18-0.31c0.38-0.21,0.67-0.5,0.88-0.88c0.21-0.37,0.31-0.77,0.31-1.17c0-0.41-0.11-0.81-0.32-1.19
					c-0.21-0.38-0.51-0.67-0.88-0.88C436.92,394.25,436.54,394.15,436.14,394.15z M435,398.09v-3.06h1.05
					c0.36,0,0.62,0.03,0.78,0.08c0.16,0.06,0.29,0.16,0.38,0.3c0.1,0.14,0.14,0.29,0.14,0.45c0,0.22-0.08,0.42-0.24,0.58
					c-0.16,0.17-0.37,0.26-0.64,0.28c0.11,0.04,0.2,0.1,0.26,0.16c0.12,0.12,0.27,0.32,0.45,0.61l0.37,0.6h-0.6l-0.27-0.48
					c-0.22-0.38-0.39-0.62-0.52-0.71c-0.09-0.07-0.22-0.11-0.4-0.1h-0.29v1.3H435z M435.49,396.37h0.61c0.29,0,0.49-0.04,0.59-0.13
					c0.11-0.09,0.16-0.2,0.16-0.34c0-0.09-0.03-0.17-0.08-0.24c-0.05-0.07-0.12-0.13-0.21-0.16c-0.09-0.04-0.26-0.05-0.5-0.05h-0.57
					V396.37z"/>
			</g>
		</g>
		<g>
			<g>
				<path class="st2" d="M436.14,393.68c0.48,0,0.94,0.12,1.39,0.37c0.45,0.24,0.81,0.59,1.06,1.05c0.25,0.45,0.38,0.93,0.38,1.42
					c0,0.49-0.12,0.96-0.37,1.41c-0.25,0.45-0.6,0.8-1.05,1.05c-0.45,0.25-0.92,0.37-1.41,0.37c-0.49,0-0.96-0.12-1.41-0.37
					c-0.45-0.25-0.8-0.6-1.05-1.05c-0.25-0.45-0.38-0.92-0.38-1.41c0-0.49,0.13-0.97,0.38-1.42c0.25-0.45,0.61-0.8,1.06-1.05
					C435.2,393.81,435.67,393.68,436.14,393.68z M436.14,394.15c-0.4,0-0.79,0.1-1.16,0.31c-0.38,0.2-0.67,0.5-0.88,0.88
					c-0.21,0.38-0.32,0.77-0.32,1.19c0,0.41,0.11,0.8,0.31,1.17c0.21,0.38,0.5,0.67,0.88,0.88c0.38,0.21,0.77,0.31,1.18,0.31
					s0.8-0.11,1.18-0.31c0.38-0.21,0.67-0.5,0.88-0.88c0.21-0.37,0.31-0.77,0.31-1.17c0-0.41-0.11-0.81-0.32-1.19
					c-0.21-0.38-0.51-0.67-0.88-0.88C436.92,394.25,436.54,394.15,436.14,394.15z M435,398.09v-3.06h1.05
					c0.36,0,0.62,0.03,0.78,0.08c0.16,0.06,0.29,0.16,0.38,0.3c0.1,0.14,0.14,0.29,0.14,0.45c0,0.22-0.08,0.42-0.24,0.58
					c-0.16,0.17-0.37,0.26-0.64,0.28c0.11,0.04,0.2,0.1,0.26,0.16c0.12,0.12,0.27,0.32,0.45,0.61l0.37,0.6h-0.6l-0.27-0.48
					c-0.22-0.38-0.39-0.62-0.52-0.71c-0.09-0.07-0.22-0.11-0.4-0.1h-0.29v1.3H435z M435.49,396.37h0.61c0.29,0,0.49-0.04,0.59-0.13
					c0.11-0.09,0.16-0.2,0.16-0.34c0-0.09-0.03-0.17-0.08-0.24c-0.05-0.07-0.12-0.13-0.21-0.16c-0.09-0.04-0.26-0.05-0.5-0.05h-0.57
					V396.37z"/>
			</g>
		</g>
	</g>
</g>
</svg>
