<svg width="24" height="24" viewBox="0 0 24 24" fill="none" xmlns="http://www.w3.org/2000/svg">
<path fill-rule="evenodd" clip-rule="evenodd" d="M4.19092 4.52877C4.56523 4.17645 5.05383 4.00012 5.65684 4.00012C6.25989 4.00012 6.74326 4.1763 7.10641 4.52877C7.46961 4.88116 7.65502 5.32609 7.66228 5.86386C7.66949 6.3943 7.48606 6.83751 7.11191 7.19345C6.73776 7.54958 6.24542 7.72751 5.635 7.72751H5.6132C5.01741 7.72751 4.53778 7.54943 4.17458 7.19345C3.81127 6.83751 3.62964 6.39414 3.62964 5.86386C3.62964 5.32605 3.81666 4.88116 4.19092 4.52877ZM19.2372 10.1856C18.4817 9.3609 17.4824 8.94846 16.24 8.94846C15.7822 8.94846 15.3661 9.00476 14.9919 9.11746C14.6177 9.23007 14.3017 9.38808 14.0437 9.59155C13.7858 9.79502 13.5804 9.98391 13.4279 10.1582C13.283 10.3238 13.1412 10.5166 13.0028 10.7348V9.19896H9.41688L9.42787 9.72218C9.43524 10.0711 9.43887 11.1464 9.43887 12.9483C9.43887 14.7503 9.43162 17.1008 9.41703 20H13.0028V13.9727C13.0028 13.6022 13.0426 13.308 13.1227 13.0898C13.2754 12.7191 13.5058 12.4087 13.8148 12.1581C14.1238 11.9072 14.5069 11.7819 14.9648 11.7819C15.5895 11.7819 16.0493 11.998 16.3436 12.4303C16.6378 12.8626 16.7849 13.4603 16.7849 14.2233V19.9997H20.3707V13.8094C20.3705 12.2179 19.9929 11.0101 19.2372 10.1856ZM7.43329 9.19903H3.83661V19.9999H7.43329V9.19903Z" fill="#1F2325"/>
</svg>
