<svg width="24" height="24" viewBox="0 0 24 24" fill="none" xmlns="http://www.w3.org/2000/svg">
<g clip-path="url(#clip0)">
<path d="M8.3862e-05 23.2988C0.00130078 23.6863 0.316957 24 0.703442 24L4.6813 24C4.86782 24 5.04665 23.9259 5.17855 23.794L13.8872 15.0854C16.6415 15.9771 19.678 15.2617 21.7379 13.2017C24.754 10.1857 24.754 5.27812 21.7379 2.26205C18.7219 -0.753984 13.8144 -0.754125 10.7983 2.26205C8.73828 4.32202 8.02297 7.35853 8.91458 10.1128L8.31271 10.7147L6.03519 11.1702C5.7568 11.2259 5.53921 11.4435 5.48352 11.7218L5.07819 13.7484L3.0516 14.1538C2.77297 14.2095 2.55524 14.4274 2.49979 14.7061L2.11517 16.6395L0.703208 16.6395C0.314847 16.6395 -1.206e-05 16.9544 -1.20261e-05 17.3427L-1.15056e-05 23.2968C-1.15055e-05 23.2975 8.3862e-05 23.2981 8.3862e-05 23.2988ZM1.40647 18.046L2.6923 18.046C3.02779 18.046 3.31654 17.809 3.38202 17.48L3.78768 15.4409L5.81375 15.0356C6.09215 14.9799 6.30974 14.7623 6.36542 14.484L6.77075 12.4574L8.7973 12.052C8.93342 12.0248 9.05849 11.9579 9.15664 11.8597L10.2235 10.7928C10.421 10.5953 10.483 10.2996 10.3812 10.0394C9.46377 7.69388 10.0179 5.03147 11.7928 3.25646C14.2602 0.789142 18.2754 0.788392 20.7435 3.25645C23.2112 5.72419 23.2112 9.73945 20.7435 12.2071C18.9657 13.9849 16.3025 14.5348 13.9605 13.6187C13.7003 13.517 13.4046 13.5788 13.2071 13.7764L4.39002 22.5935L2.40097 22.5935L11.1457 13.8488C11.4203 13.5742 11.4203 13.129 11.1457 12.8543C11.0084 12.717 10.8284 12.6483 10.6484 12.6483C10.4685 12.6483 10.2885 12.717 10.1512 12.8543L1.40647 21.599L1.40647 18.046Z" fill="#00694C"/>
<path d="M16.7653 7.23462C17.5878 8.05719 18.9262 8.05723 19.7488 7.23462C20.5714 6.41206 20.5714 5.07364 19.7488 4.25108C18.9263 3.42851 17.5878 3.42847 16.7653 4.25108C15.9427 5.07364 15.9427 6.41211 16.7653 7.23462ZM17.7598 5.24562C18.0347 4.97075 18.4794 4.97075 18.7543 5.24562C19.0291 5.52055 19.0291 5.96525 18.7543 6.24012C18.48 6.51434 18.0339 6.51429 17.7598 6.24012C17.4856 5.96595 17.4856 5.5198 17.7598 5.24562Z" fill="#00694C"/>
</g>
<defs>
<clipPath id="clip0">
<rect width="24" height="24" fill="white"/>
</clipPath>
</defs>
</svg>
