<svg width="24" height="24" viewBox="0 0 24 24" fill="none" xmlns="http://www.w3.org/2000/svg">
<g clip-path="url(#clip0)">
<path d="M23.6456 14.5698L20.4673 4.47886C20.0196 3.00777 18.455 2.17629 16.9839 2.62401C16.6346 2.73225 16.4329 3.10125 16.5411 3.45057C16.6493 3.79989 17.0183 4.00161 17.3677 3.89337C18.1401 3.65721 18.9568 4.09509 19.193 4.86754V4.87246L21.466 12.1C20.7428 11.6916 19.9113 11.4604 19.0257 11.4604C16.4771 11.4604 14.3714 13.389 14.086 15.8589H9.904C9.57928 13.4284 7.49319 11.5489 4.97414 11.5489C4.08362 11.5489 3.24721 11.7851 2.52397 12.1934L4.82654 4.87246V4.86754C5.0627 4.09509 5.87942 3.65721 6.65187 3.89337C7.00119 4.00161 7.37511 3.79989 7.47843 3.45057C7.58667 3.10125 7.38495 2.72733 7.03563 2.62401C5.56454 2.17629 4.0049 3.00777 3.55225 4.47886L0.383761 14.5797C0.373921 14.6092 0.369001 14.6338 0.364081 14.6633C0.132841 15.2389 0 15.8687 0 16.5231C0 19.2635 2.23369 21.4972 4.97414 21.4972C7.49319 21.4972 9.57928 19.6178 9.904 17.1873H14.1106C14.4747 19.5735 16.5411 21.4086 19.0257 21.4086C21.7662 21.4086 23.9999 19.175 23.9999 16.4345C24.0048 15.7752 23.8769 15.1455 23.6456 14.5698ZM4.97906 20.1688C2.96677 20.1688 1.33333 18.5354 1.33333 16.5231C1.33333 14.5108 2.96677 12.8773 4.97906 12.8773C6.99135 12.8773 8.62479 14.5108 8.62479 16.5231C8.62479 18.5354 6.98643 20.1688 4.97906 20.1688ZM19.0306 20.0802C17.0183 20.0802 15.3849 18.4468 15.3849 16.4345C15.3849 14.4222 17.0233 12.7888 19.0306 12.7888C21.038 12.7888 22.6764 14.4222 22.6764 16.4345C22.6764 18.4468 21.0429 20.0802 19.0306 20.0802Z" fill="#00694C"/>
</g>
<defs>
<clipPath id="clip0">
<path d="M0 0H24V24H0V0Z" fill="white"/>
</clipPath>
</defs>
</svg>
