<svg width="24" height="24" viewBox="0 0 24 24" fill="none" xmlns="http://www.w3.org/2000/svg">
<path d="M17.9249 3.90764C16.5237 2.56248 14.5845 1.82161 12.4647 1.82161C9.22649 1.82161 7.23487 3.14898 6.13434 4.26245C4.77801 5.63467 4.00024 7.4567 4.00024 9.26146C4.00024 11.5275 4.94806 13.2667 6.5353 13.9137C6.64186 13.9574 6.74908 13.9794 6.8542 13.9794C7.18904 13.9794 7.45436 13.7603 7.54628 13.4088C7.59985 13.2072 7.72401 12.7098 7.77798 12.4939C7.89354 12.0674 7.80017 11.8623 7.54818 11.5653C7.08911 11.0222 6.87534 10.3799 6.87534 9.54391C6.87534 7.06092 8.72422 4.422 12.151 4.422C14.8699 4.422 16.5589 5.96735 16.5589 8.45494C16.5589 10.0247 16.2208 11.4785 15.6066 12.5486C15.1799 13.2922 14.4294 14.1785 13.2774 14.1785C12.7792 14.1785 12.3316 13.9739 12.0493 13.6171C11.7825 13.2798 11.6946 12.8441 11.8019 12.3901C11.9231 11.877 12.0883 11.3418 12.2483 10.8245C12.54 9.87955 12.8157 8.98708 12.8157 8.27504C12.8157 7.05711 12.067 6.23877 10.9527 6.23877C9.53665 6.23877 8.42726 7.67704 8.42726 9.51312C8.42726 10.4136 8.66657 11.0871 8.77491 11.3457C8.59652 12.1016 7.5363 16.5951 7.33519 17.4425C7.21892 17.9372 6.51843 21.844 7.67785 22.1556C8.98054 22.5056 10.145 18.7005 10.2635 18.2706C10.3595 17.9209 10.6956 16.5986 10.9016 15.7858C11.5304 16.3915 12.543 16.801 13.5282 16.801C15.3856 16.801 17.0559 15.9652 18.2317 14.4477C19.3719 12.9758 19.9999 10.9243 19.9999 8.67141C19.9999 6.91011 19.2436 5.17376 17.9249 3.90764Z" fill="#1F2325"/>
</svg>
