<svg width="24" height="24" viewBox="0 0 24 24" fill="none" xmlns="http://www.w3.org/2000/svg">
<g clip-path="url(#clip0)">
<path d="M2.159 15.546V18.743C1.31763 19.2312 0.75 20.1412 0.75 21.182C0.75 22.7358 2.01416 24 3.56799 24C4.60876 24 5.5188 23.4324 6.00696 22.591H18.0372C18.5251 23.4324 19.4354 24 20.476 24C22.0298 24 23.2939 22.7358 23.2939 21.182C23.2939 20.1412 22.7265 19.2312 21.8849 18.743V15.546C21.1011 15.546 17.0359 15.546 16.249 15.546V14.137H20.476C20.476 13.5815 20.476 1.07446 20.476 0H19.067V5.68304H12.022V7.09204H14.84V9.91003H12.7266C11.5611 9.91003 10.613 10.8582 10.613 12.0234V14.137H14.84V15.546H12.7266C11.5611 15.546 10.613 16.4941 10.613 17.6594V18.364H8.72809C8.01892 16.8717 6.60297 15.8324 4.97699 15.5967V9.91003H7.79498V7.09204H10.613V5.68304H7.79498V4.27405H5.68158C2.96228 4.27405 0.75 6.48633 0.75 9.20544V9.91003H3.56799V15.546H2.159ZM16.249 7.09204H19.067V9.91003H16.249V7.09204ZM12.022 12.728V12.0234C12.022 11.6351 12.338 11.319 12.7266 11.319H19.067V12.728C18.0443 12.728 12.939 12.728 12.022 12.728ZM5.68158 5.68304H6.38599V8.50104H2.22986C2.55707 6.8952 3.98035 5.68304 5.68158 5.68304ZM3.56799 22.591C2.79108 22.591 2.159 21.9589 2.159 21.182C2.159 20.4051 2.79108 19.773 3.56799 19.773C4.34491 19.773 4.97699 20.4051 4.97699 21.182C4.97699 21.9589 4.34491 22.591 3.56799 22.591ZM20.476 22.591C19.699 22.591 19.067 21.9589 19.067 21.182C19.067 20.4051 19.699 19.773 20.476 19.773C21.2529 19.773 21.8849 20.4051 21.8849 21.182C21.8849 21.9589 21.2529 22.591 20.476 22.591ZM12.022 17.6594C12.022 17.2711 12.338 16.9545 12.7266 16.9545H16.3231C15.9124 17.3558 15.5691 17.8314 15.3159 18.364H12.022V17.6594ZM7.59412 19.3039L7.76038 19.773H16.2838L16.45 19.3039C16.9481 17.8989 18.2829 16.955 19.7715 16.955H20.476V18.364C18.9221 18.364 17.658 19.6282 17.658 21.182H6.38599C6.38599 19.6282 5.12183 18.364 3.56799 18.364V16.955H4.27258C5.76123 16.955 7.09607 17.8989 7.59412 19.3039Z" fill="#00694C"/>
</g>
<defs>
<clipPath id="clip0">
<path d="M0 0H24V24H0V0Z" fill="white"/>
</clipPath>
</defs>
</svg>
