<svg width="24" height="24" viewBox="0 0 24 24" fill="none" xmlns="http://www.w3.org/2000/svg">
<path d="M21.5 5.89305C20.8007 6.21429 20.0503 6.43216 19.262 6.52942C20.067 6.02968 20.6832 5.23702 20.9752 4.2954C20.2201 4.75819 19.3866 5.09424 18.4985 5.27641C17.7874 4.48989 16.7758 4 15.6538 4C13.5013 4 11.756 5.80937 11.756 8.03969C11.756 8.35601 11.7904 8.66496 11.8569 8.96039C8.61801 8.79174 5.74599 7.18301 3.82379 4.7385C3.48778 5.33425 3.29664 6.02842 3.29664 6.76943C3.29664 8.1714 3.98526 9.40841 5.03008 10.1321C4.39131 10.11 3.79054 9.92782 3.2646 9.62502V9.67549C3.2646 11.6326 4.6086 13.2659 6.39069 13.6376C6.06418 13.7287 5.71988 13.7792 5.3637 13.7792C5.11201 13.7792 4.86861 13.7534 4.62996 13.7041C5.12623 15.3104 6.56523 16.4785 8.27017 16.5105C6.93685 17.5937 5.25566 18.2374 3.42964 18.2374C3.11502 18.2374 2.80512 18.2177 2.5 18.182C4.22512 19.3304 6.27318 20 8.47439 20C15.6444 20 19.5636 13.8432 19.5636 8.50374L19.5505 7.98063C20.3163 7.41439 20.9788 6.70297 21.5 5.89305Z" fill="#1F2325"/>
</svg>
