<svg width="24" height="24" viewBox="0 0 24 24" fill="none" xmlns="http://www.w3.org/2000/svg">
<g clip-path="url(#clip0)">
<path d="M12 16.3834C10.7902 16.3834 9.80832 17.3653 9.80832 18.5751C9.80832 19.7849 10.7902 20.7668 12 20.7668C13.2098 20.7668 14.1917 19.7849 14.1917 18.5751C14.1917 17.3653 13.2098 16.3834 12 16.3834ZM23.743 8.72052C20.812 5.23281 16.5317 3.23325 12 3.23325C7.46835 3.23325 3.18867 5.23281 0.25693 8.72052C-0.132488 9.18371 -0.0725656 9.87482 0.391364 10.2642C0.596623 10.4366 0.845765 10.5214 1.09487 10.5214C1.40754 10.5214 1.71805 10.3884 1.935 10.1305C4.44814 7.14034 8.11703 5.42497 12 5.42497C15.8829 5.42497 19.5518 7.14034 22.0649 10.1298C22.2819 10.3877 22.5924 10.5207 22.9051 10.5207C23.1542 10.5207 23.4041 10.4366 23.6093 10.2635C24.0725 9.87478 24.1325 9.18296 23.743 8.72052ZM12 7.61662C8.76289 7.61662 5.7062 9.04484 3.61244 11.5354C3.22306 11.9985 3.28295 12.6897 3.74688 13.079C3.95213 13.2514 4.20198 13.3362 4.45112 13.3362C4.7638 13.3362 5.07431 13.2032 5.29055 12.9453C6.96572 10.9517 9.41164 9.80831 12 9.80831C14.5884 9.80831 17.0343 10.9517 18.7102 12.9453C18.9272 13.204 19.2377 13.3362 19.5496 13.3362C19.7988 13.3362 20.0486 13.2522 20.2539 13.079C20.7178 12.6897 20.7777 11.9978 20.3884 11.5354C18.2938 9.04488 15.2371 7.61662 12 7.61662ZM12 12C10.0567 12 8.22225 12.8569 6.96717 14.3509C6.57775 14.8141 6.63767 15.5052 7.1016 15.8946C7.30686 16.067 7.55671 16.1518 7.80585 16.1518C8.11852 16.1518 8.42904 16.0188 8.64528 15.7609C9.48325 14.7637 10.7062 14.1916 12 14.1916C13.2938 14.1916 14.5168 14.7637 15.3547 15.7609C15.5717 16.0196 15.8822 16.1518 16.1942 16.1518C16.4433 16.1518 16.6931 16.0678 16.8984 15.8946C17.3623 15.5052 17.4222 14.8141 17.0328 14.3509C15.7777 12.8569 13.9433 12 12 12Z" fill="#00694C"/>
</g>
<defs>
<clipPath id="clip0">
<path d="M0 0H24V24H0V0Z" fill="white"/>
</clipPath>
</defs>
</svg>
