<svg width="24" height="24" viewBox="0 0 24 24" fill="none" xmlns="http://www.w3.org/2000/svg">
<path fill-rule="evenodd" clip-rule="evenodd" d="M3.22362 5.74516C4.64055 5.46153 7.61915 5 12 5C16.3809 5 19.3594 5.46153 20.7764 5.74516C21.0458 5.7991 21.246 5.99181 21.3102 6.25368C21.5933 7.40734 22 9.50241 22 12C22 14.5348 21.5811 16.6548 21.2978 17.7968C21.2359 18.0463 21.0557 18.2168 20.8231 18.2666C19.517 18.5468 16.6805 19 12 19C7.31948 19 4.48301 18.5468 3.17687 18.2666C2.94427 18.2168 2.76413 18.0463 2.70223 17.7968C2.41892 16.6548 2 14.5348 2 12C2 9.50241 2.40672 7.40734 2.68978 6.25368C2.75403 5.99181 2.95418 5.7991 3.22362 5.74516ZM12 3C7.47808 3 4.36784 3.47645 2.83106 3.78407C1.80583 3.98929 0.997757 4.75666 0.747387 5.77711C0.438909 7.0344 0 9.29564 0 12C0 14.7443 0.451987 17.0325 0.761079 18.2784C1.00235 19.2509 1.75907 20.0081 2.75751 20.2222C4.21228 20.5342 7.19001 21 12 21C16.81 21 19.7877 20.5342 21.2425 20.2222C22.2409 20.0081 22.9977 19.2509 23.2389 18.2784C23.548 17.0325 24 14.7443 24 12C24 9.29564 23.5611 7.0344 23.2526 5.77711C23.0022 4.75666 22.1942 3.98929 21.1689 3.78407C19.6322 3.47645 16.5219 3 12 3ZM11 15.75L9 17V14.6415V9.3585V7L11 8.25L15.1132 10.8208L17 12L15.1132 13.1792L11 15.75ZM13.2264 12L11 13.3915V10.6085L13.2264 12Z" fill="#1F2325"/>
</svg>
